<?xml version="1.0" encoding="utf-8"?>
<!-- Generator: Adobe Illustrator 17.0.0, SVG Export Plug-In . SVG Version: 6.00 Build 0)  -->
<!DOCTYPE svg PUBLIC "-//W3C//DTD SVG 1.1//EN" "http://www.w3.org/Graphics/SVG/1.1/DTD/svg11.dtd">
<svg version="1.1" id="Layer_1" xmlns="http://www.w3.org/2000/svg" xmlns:xlink="http://www.w3.org/1999/xlink" x="0px" y="0px"
	 width="476.576px" height="86.941px" viewBox="0 0 476.576 86.941" enable-background="new 0 0 476.576 86.941"
	 xml:space="preserve">
<g id="Layer_1_1_">
	<g>
		<path d="M0,40.051h17.168c3.398,0,5.933,0.142,7.603,0.425s3.164,0.875,4.482,1.772c1.318,0.898,2.417,2.095,3.296,3.589
			c0.879,1.494,1.318,3.169,1.318,5.024c0,2.012-0.542,3.857-1.626,5.537s-2.554,2.94-4.409,3.779
			c2.617,0.762,4.629,2.061,6.035,3.896c1.406,1.836,2.109,3.995,2.109,6.475c0,1.953-0.454,3.853-1.362,5.698
			s-2.149,3.321-3.721,4.424c-1.572,1.104-3.511,1.783-5.815,2.036c-1.446,0.157-4.932,0.254-10.459,0.293H0V40.051z M8.672,47.199
			v9.932h5.684c3.379,0,5.479-0.048,6.299-0.146c1.484-0.176,2.651-0.688,3.501-1.538s1.274-1.967,1.274-3.354
			c0-1.328-0.366-2.407-1.099-3.237c-0.732-0.83-1.821-1.333-3.267-1.509c-0.86-0.098-3.33-0.146-7.412-0.146h-4.98V47.199z
			 M8.672,64.279v11.484h8.027c3.125,0,5.107-0.088,5.947-0.264c1.289-0.234,2.339-0.806,3.149-1.714s1.216-2.124,1.216-3.647
			c0-1.289-0.313-2.383-0.938-3.281c-0.625-0.898-1.528-1.553-2.71-1.963c-1.182-0.41-3.746-0.615-7.69-0.615
			C15.673,64.279,8.672,64.279,8.672,64.279z"/>
		<path d="M43.242,83V40.051h8.232V83H43.242z"/>
		<path d="M58.008,67.004c0-2.734,0.674-5.38,2.021-7.939c1.348-2.559,3.256-4.512,5.728-5.859c2.471-1.348,5.229-2.021,8.276-2.021
			c4.707,0,8.564,1.528,11.572,4.585c3.007,3.057,4.512,6.919,4.512,11.587c0,4.707-1.519,8.609-4.556,11.704
			c-3.037,3.096-6.86,4.644-11.47,4.644c-2.852,0-5.571-0.645-8.159-1.934c-2.588-1.289-4.556-3.179-5.903-5.669
			S58.008,70.578,58.008,67.004z M66.445,67.443c0,3.086,0.732,5.449,2.197,7.09s3.271,2.461,5.42,2.461
			c2.148,0,3.95-0.82,5.405-2.461s2.183-4.023,2.183-7.148c0-3.047-0.728-5.391-2.183-7.031c-1.455-1.641-3.257-2.461-5.405-2.461
			c-2.149,0-3.955,0.82-5.42,2.461S66.445,64.357,66.445,67.443z"/>
		<path d="M94.658,67.004c0-2.734,0.674-5.38,2.021-7.939c1.348-2.559,3.256-4.512,5.728-5.859c2.471-1.348,5.229-2.021,8.276-2.021
			c4.707,0,8.564,1.528,11.572,4.585c3.007,3.057,4.512,6.919,4.512,11.587c0,4.707-1.519,8.609-4.556,11.704
			c-3.037,3.096-6.86,4.644-11.47,4.644c-2.852,0-5.571-0.645-8.159-1.934s-4.556-3.179-5.903-5.669S94.658,70.578,94.658,67.004z
			 M103.096,67.443c0,3.086,0.732,5.449,2.197,7.09s3.271,2.461,5.42,2.461c2.148,0,3.95-0.82,5.405-2.461s2.183-4.023,2.183-7.148
			c0-3.047-0.728-5.391-2.183-7.031c-1.455-1.641-3.257-2.461-5.405-2.461c-2.149,0-3.955,0.82-5.42,2.461
			S103.096,64.357,103.096,67.443z"/>
		<path d="M161.748,83h-7.646v-4.57c-1.27,1.777-2.769,3.101-4.497,3.97s-3.472,1.304-5.229,1.304c-3.574,0-6.636-1.44-9.185-4.321
			s-3.823-6.899-3.823-12.056c0-5.273,1.24-9.282,3.721-12.026c2.48-2.744,5.615-4.116,9.404-4.116c3.476,0,6.484,1.446,9.023,4.336
			v-15.47h8.232V83z M139.775,66.77c0,3.321,0.458,5.723,1.377,7.207c1.328,2.149,3.183,3.223,5.566,3.223
			c1.894,0,3.505-0.806,4.834-2.417c1.328-1.611,1.992-4.018,1.992-7.222c0-3.574-0.645-6.147-1.934-7.72
			c-1.289-1.572-2.94-2.358-4.951-2.358c-1.953,0-3.589,0.776-4.907,2.329S139.775,63.684,139.775,66.77z"/>
		<path d="M186.621,40.051h17.168c3.398,0,5.933,0.142,7.603,0.425s3.164,0.875,4.482,1.772c1.318,0.898,2.417,2.095,3.296,3.589
			s1.318,3.169,1.318,5.024c0,2.012-0.542,3.857-1.626,5.537s-2.554,2.94-4.409,3.779c2.617,0.762,4.629,2.061,6.035,3.896
			c1.406,1.836,2.109,3.995,2.109,6.475c0,1.953-0.454,3.853-1.362,5.698s-2.149,3.321-3.721,4.424
			c-1.572,1.104-3.511,1.783-5.815,2.036c-1.446,0.157-4.932,0.254-10.459,0.293h-14.619L186.621,40.051L186.621,40.051z
			 M195.293,47.199v9.932h5.684c3.379,0,5.479-0.048,6.299-0.146c1.484-0.176,2.651-0.688,3.501-1.538s1.274-1.967,1.274-3.354
			c0-1.328-0.366-2.407-1.099-3.237c-0.732-0.83-1.821-1.333-3.267-1.509c-0.86-0.098-3.33-0.146-7.412-0.146h-4.98V47.199z
			 M195.293,64.279v11.484h8.027c3.125,0,5.107-0.088,5.947-0.264c1.289-0.234,2.339-0.806,3.149-1.714s1.216-2.124,1.216-3.647
			c0-1.289-0.313-2.383-0.938-3.281c-0.625-0.898-1.528-1.553-2.71-1.963c-1.182-0.41-3.746-0.615-7.69-0.615
			C202.294,64.279,195.293,64.279,195.293,64.279z"/>
		<path d="M236.016,61.379l-7.471-1.348c0.839-3.007,2.285-5.234,4.336-6.68c2.051-1.445,5.098-2.168,9.141-2.168
			c3.672,0,6.406,0.435,8.203,1.304s3.062,1.973,3.794,3.311c0.732,1.338,1.099,3.794,1.099,7.368l-0.088,9.609
			c0,2.735,0.132,4.751,0.396,6.05c0.264,1.299,0.757,2.691,1.479,4.175h-8.145c-0.215-0.546-0.479-1.357-0.791-2.432
			c-0.137-0.488-0.234-0.81-0.293-0.967c-1.406,1.367-2.911,2.393-4.512,3.076c-1.602,0.684-3.311,1.025-5.127,1.025
			c-3.204,0-5.728-0.869-7.573-2.607c-1.846-1.738-2.769-3.936-2.769-6.592c0-1.758,0.42-3.325,1.26-4.702
			c0.839-1.377,2.017-2.432,3.53-3.164s3.696-1.372,6.548-1.919c3.848-0.722,6.514-1.396,7.998-2.021v-0.82
			c0-1.582-0.391-2.71-1.172-3.384c-0.781-0.674-2.256-1.011-4.424-1.011c-1.465,0-2.607,0.289-3.428,0.864
			C237.188,58.923,236.523,59.934,236.016,61.379z M247.031,68.059c-1.055,0.352-2.725,0.772-5.01,1.26
			c-2.285,0.488-3.779,0.967-4.482,1.436c-1.074,0.762-1.611,1.729-1.611,2.9c0,1.153,0.429,2.149,1.289,2.988
			c0.859,0.84,1.953,1.26,3.281,1.26c1.484,0,2.9-0.488,4.248-1.465c0.996-0.742,1.65-1.65,1.963-2.725
			c0.215-0.703,0.322-2.041,0.322-4.014L247.031,68.059L247.031,68.059z"/>
		<path d="M291.534,83h-8.232V67.121c0-3.359-0.176-5.532-0.527-6.519c-0.352-0.986-0.923-1.753-1.714-2.3
			c-0.791-0.546-1.743-0.82-2.856-0.82c-1.426,0-2.706,0.391-3.838,1.172c-1.133,0.781-1.909,1.816-2.329,3.105
			c-0.421,1.289-0.63,3.672-0.63,7.148V83h-8.232V51.887h7.646v4.57c2.714-3.516,6.133-5.273,10.254-5.273
			c1.816,0,3.476,0.327,4.98,0.981c1.504,0.655,2.641,1.49,3.413,2.505c0.771,1.016,1.308,2.168,1.611,3.457
			c0.303,1.289,0.454,3.135,0.454,5.537V83z"/>
		<path d="M299.59,83V40.051h8.232v22.793l9.639-10.957h10.137l-10.635,11.367L328.36,83h-8.877l-7.822-13.975l-3.838,4.014V83
			H299.59z"/>
	</g>
</g>
<g id="Droppy">
	<polygon fill="#D42B00" stroke="#000000" stroke-width="2" stroke-miterlimit="10" points="447.077,68.659 448.317,79.234 
		444.147,78.727 443.62,69.505 	"/>
	<path fill="#FFFFFF" stroke="#000000" stroke-width="2" stroke-miterlimit="10" d="M449.297,75.693c0,0,5.583-3.721,7.018,2.143
		c1.435,5.863-7.404,7.368-7.883,7.391s-5.26-0.212-6.414-4.927c-0.674-2.754,0.877-3.04,1.847-3.832L449.297,75.693z"/>
	<polygon fill="#D42B00" stroke="#000000" stroke-width="2" stroke-miterlimit="10" points="429.036,69.096 430.346,79.663 
		434.275,78.178 432.594,69.096 	"/>
	<path fill="#D42B00" stroke="#000000" stroke-miterlimit="10" d="M459.011,48.796c0,0,4.716-3.624,4.978-8.645l-1.659-1.092
		c0,0-0.673,3.605-3.066,6.606L459.011,48.796z"/>
	<path fill="#FFFFFF" stroke="#000000" stroke-width="2" stroke-miterlimit="10" d="M464.23,42.027l0.277-0.63
		c0,0,2.934-1.074,3.512-3.633s0.775-5.538-1.805-6.252c-2.579-0.714-4.286,2.535-4.286,2.535s-1.318-0.894-2.015,0.314
		c-0.698,1.208-0.371,4.975,2.158,5.725l-0.156,0.564L464.23,42.027z"/>
	<line fill="none" stroke="#000000" stroke-width="2" stroke-miterlimit="10" x1="461.929" y1="34.047" x2="462.46" y2="36.283"/>
	<path fill="#D42B00" stroke="#000000" stroke-miterlimit="10" d="M414.646,49.84c0,0-4.716-3.624-4.978-8.645l1.659-1.092
		c0,0,0.673,3.605,3.066,6.606L414.646,49.84z"/>
	<path fill="#D42B00" stroke="#000000" stroke-width="2" stroke-miterlimit="10" d="M433.102,11.226
		c0,0-13.296,21.563-16.534,29.109c-3.61,8.413-4.743,16.405,2.911,24.918c6.288,6.993,15.052,7.003,17.346,6.92
		c2.994-0.108,15.489-1.797,21.195-11.461c4.207-7.125,2.678-17-5.705-29.459C444.395,19.485,433.102,11.226,433.102,11.226z"/>
	<path fill="#D42B00" stroke="#000000" stroke-width="2" stroke-miterlimit="10" d="M415.694,10.275
		c-1.137-0.758-3.88-0.624-6.255,1.432c-2.33,2.017-4.504,8.12-1.779,9.533c2.358,1.223,6.375-0.655,8.209-3.144
		S418.576,12.196,415.694,10.275z"/>
	<path fill="none" stroke="#000000" stroke-width="2" stroke-miterlimit="10" d="M408.883,17.893c0,0,1.688,3.115,4.366-1.193
		c1.405-2.26,1.391-3.789,0.175-4.454"/>
	<path d="M432.352,42.962c0,1.941-0.284,3.515-1.332,3.515c-0.917,0-1.332-1.574-1.332-3.515s0.371-3.515,1.332-3.515
		C432.352,39.447,432.352,41.021,432.352,42.962z"/>
	<path d="M442.7,42.613c0,1.941-0.284,3.515-1.332,3.515c-0.917,0-1.332-1.574-1.332-3.515c0-1.941,0.371-3.515,1.332-3.515
		C442.7,39.098,442.7,40.672,442.7,42.613z"/>
	<path stroke="#000000" stroke-width="2" stroke-miterlimit="10" d="M432.024,50.32l9.369-0.175c0,0,0.499,7.746-4.348,7.74
		C435.59,57.884,432.557,57.971,432.024,50.32z"/>
	<path fill="#FFFFFF" stroke="#000000" stroke-width="2" stroke-miterlimit="10" d="M409.427,43.071l-0.277-0.63
		c0,0-2.934-1.074-3.512-3.633s-0.775-5.538,1.805-6.252c2.579-0.714,4.286,2.535,4.286,2.535s1.318-0.894,2.015,0.314
		c0.698,1.208,0.513,4.929-2.015,5.679l0.014,0.611L409.427,43.071z"/>
	<line fill="none" stroke="#000000" stroke-width="2" stroke-miterlimit="10" x1="411.728" y1="35.09" x2="411.197" y2="37.326"/>
	<path fill="#D42B00" stroke="#000000" stroke-width="2" stroke-miterlimit="10" d="M433.102,11.226"/>
	<path fill="#FFFFFF" stroke="#000000" stroke-width="2" stroke-miterlimit="10" d="M428.551,76.456c0,0-6.308-2.287-6.308,3.75
		s8.944,5.396,9.414,5.305s5.058-1.457,5.058-6.311c0-2.835-1.575-2.744-2.705-3.283L428.551,76.456z"/>
	<g>
		<path fill="#DF7B6B" stroke="#000500" stroke-miterlimit="10" d="M462.143,12.57c0,0-8.474,1.271-6.333,9.833
			c1.333,5.333,11.583,2.75,11.583-1.667S467.893,12.903,462.143,12.57z"/>
		<path fill="#6B1687" d="M462.101,13.945c0,0-2.833,2.292-2,3.458c0.833,1.167,1.872,1.39,2.331,1.056l0.378,0.735
			c0,0-3.292,2.958-0.625,3.667c2.667,0.708,2.75-0.75,3.167-2.125s0.792-3.292-1.417-2.625l-0.417-0.458
			c0,0,1.792-2.167,0.667-3.125S462.101,13.945,462.101,13.945z"/>
		<path fill="#6B1687" d="M456.809,19.403c0.055,0.94,0.317,3.358,1.583,3.417c1.25,0.058,3.375-1.042,1.333-3.417
			C457.684,17.028,456.702,17.572,456.809,19.403z"/>
	</g>
	<g>
		
			<image overflow="visible" enable-background="new    " width="338" height="338" xlink:href="83C8D67C.png"  transform="matrix(0.2372 0 0 0.2372 405.3686 -32.8973)">
		</image>
	</g>
	<circle fill="none" stroke="#000000" stroke-miterlimit="10" cx="445.43" cy="7.165" r="4.062"/>
	<g id="Layer_4">
	</g>
</g>
</svg>
