<?xml version="1.0" encoding="utf-8"?>
<!-- Generator: Adobe Illustrator 17.0.0, SVG Export Plug-In . SVG Version: 6.00 Build 0)  -->
<!DOCTYPE svg PUBLIC "-//W3C//DTD SVG 1.1//EN" "http://www.w3.org/Graphics/SVG/1.1/DTD/svg11.dtd">
<svg version="1.1" id="Layer_1" xmlns="http://www.w3.org/2000/svg" xmlns:xlink="http://www.w3.org/1999/xlink" x="0px" y="0px"
	 width="183.422px" height="154.086px" viewBox="0 0 183.422 154.086" enable-background="new 0 0 183.422 154.086"
	 xml:space="preserve">
<rect x="1.51" y="1.5" fill="none" stroke="#000000" stroke-width="3" stroke-miterlimit="10" width="36.082" height="103.093"/>
<rect x="37.593" y="1.5" fill="none" stroke="#000000" stroke-width="3" stroke-miterlimit="10" width="36.082" height="103.093"/>
<rect x="73.675" y="1.5" fill="none" stroke="#000000" stroke-width="3" stroke-miterlimit="10" width="36.082" height="103.093"/>
<rect x="109.758" y="1.5" fill="none" stroke="#000000" stroke-width="3" stroke-miterlimit="10" width="36.082" height="103.093"/>
<rect x="145.84" y="1.5" fill="none" stroke="#000000" stroke-width="3" stroke-miterlimit="10" width="36.082" height="103.093"/>
<line fill="none" stroke="#000000" stroke-width="3" stroke-miterlimit="10" x1="1.51" y1="36.273" x2="181.922" y2="36.273"/>
<line fill="none" stroke="#000000" stroke-width="3" stroke-miterlimit="10" x1="1.51" y1="70.665" x2="181.922" y2="70.665"/>
<polyline fill="none" stroke="#FF0000" stroke-width="7" stroke-miterlimit="10" points="1.51,85.005 48.933,62.325 91.716,62.325 
	127.799,57.17 163.881,44.799 "/>
<line fill="none" stroke="#000000" stroke-width="3" stroke-miterlimit="10" x1="1.51" y1="53.046" x2="1.51" y2="104.593"/>
<polygon fill="#FF0000" stroke="#FF0000" stroke-width="3" stroke-miterlimit="10" points="157.893,38.106 162.046,55.203 
	171.4,42.73 "/>
<g>
	<path d="M8.584,116.627h5.203v13.957c0,2.215,0.064,3.65,0.193,4.307c0.223,1.055,0.753,1.901,1.591,2.54s1.983,0.958,3.437,0.958
		c1.477,0,2.59-0.302,3.34-0.905s1.201-1.345,1.354-2.224s0.229-2.338,0.229-4.377v-14.256h5.203v13.535
		c0,3.094-0.141,5.279-0.422,6.557s-0.8,2.355-1.556,3.234s-1.767,1.579-3.032,2.101s-2.918,0.782-4.957,0.782
		c-2.461,0-4.327-0.284-5.599-0.853s-2.276-1.307-3.015-2.215s-1.225-1.86-1.459-2.856c-0.34-1.477-0.51-3.656-0.51-6.539V116.627z"
		/>
	<path d="M43.142,123.729v3.938h-3.375v7.523c0,1.523,0.032,2.411,0.097,2.663s0.211,0.46,0.439,0.624s0.507,0.246,0.835,0.246
		c0.457,0,1.119-0.158,1.986-0.475l0.422,3.832c-1.148,0.492-2.449,0.738-3.902,0.738c-0.891,0-1.693-0.149-2.408-0.448
		s-1.239-0.686-1.573-1.16s-0.565-1.116-0.694-1.925c-0.105-0.574-0.158-1.734-0.158-3.48v-8.139h-2.268v-3.938h2.268v-3.709
		l4.957-2.883v6.592H43.142z"/>
	<path d="M46.57,121.198v-4.57h4.939v4.57H46.57z M46.57,142.397v-18.668h4.939v18.668H46.57z"/>
	<path d="M56.572,142.397v-25.77h4.939v25.77H56.572z"/>
	<path d="M66.574,121.198v-4.57h4.939v4.57H66.574z M66.574,142.397v-18.668h4.939v18.668H66.574z"/>
	<path d="M74.59,142.397v-3.85l6.996-8.033c1.148-1.313,1.998-2.244,2.549-2.795c-0.574,0.035-1.33,0.059-2.268,0.07l-6.592,0.035
		v-4.096h15.434v3.498l-7.137,8.227l-2.514,2.725c1.371-0.082,2.221-0.123,2.549-0.123h7.646v4.342H74.59z"/>
	<path d="M98.267,129.424l-4.482-0.809c0.504-1.805,1.371-3.141,2.602-4.008s3.059-1.301,5.484-1.301
		c2.203,0,3.844,0.261,4.922,0.782s1.837,1.184,2.276,1.986s0.659,2.276,0.659,4.421l-0.053,5.766c0,1.641,0.079,2.851,0.237,3.63
		s0.454,1.614,0.888,2.505h-4.887c-0.129-0.328-0.287-0.814-0.475-1.459c-0.082-0.293-0.141-0.486-0.176-0.58
		c-0.844,0.82-1.746,1.436-2.707,1.846s-1.986,0.615-3.076,0.615c-1.922,0-3.437-0.521-4.544-1.564s-1.661-2.361-1.661-3.955
		c0-1.055,0.252-1.995,0.756-2.821s1.21-1.459,2.118-1.898s2.218-0.823,3.929-1.151c2.309-0.434,3.908-0.838,4.799-1.213v-0.492
		c0-0.949-0.234-1.626-0.703-2.03c-0.469-0.404-1.354-0.606-2.654-0.606c-0.879,0-1.564,0.173-2.057,0.519
		S98.572,128.557,98.267,129.424z M104.877,133.432c-0.633,0.211-1.635,0.463-3.006,0.756s-2.268,0.58-2.689,0.861
		c-0.645,0.457-0.967,1.037-0.967,1.74c0,0.691,0.258,1.289,0.773,1.793s1.172,0.756,1.969,0.756c0.891,0,1.74-0.293,2.549-0.879
		c0.598-0.445,0.99-0.99,1.178-1.635c0.129-0.422,0.193-1.225,0.193-2.408V133.432z"/>
	<path d="M123.158,123.729v3.938h-3.375v7.523c0,1.523,0.032,2.411,0.097,2.663s0.211,0.46,0.439,0.624s0.507,0.246,0.835,0.246
		c0.457,0,1.119-0.158,1.986-0.475l0.422,3.832c-1.148,0.492-2.449,0.738-3.902,0.738c-0.891,0-1.693-0.149-2.408-0.448
		s-1.239-0.686-1.573-1.16s-0.565-1.116-0.694-1.925c-0.105-0.574-0.158-1.734-0.158-3.48v-8.139h-2.268v-3.938h2.268v-3.709
		l4.957-2.883v6.592H123.158z"/>
	<path d="M126.586,121.198v-4.57h4.939v4.57H126.586z M126.586,142.397v-18.668h4.939v18.668H126.586z"/>
	<path d="M135.445,132.799c0-1.641,0.404-3.229,1.213-4.764c0.809-1.535,1.954-2.707,3.437-3.516s3.138-1.213,4.966-1.213
		c2.824,0,5.139,0.917,6.943,2.751s2.707,4.151,2.707,6.952c0,2.824-0.911,5.165-2.733,7.022s-4.116,2.786-6.882,2.786
		c-1.711,0-3.343-0.387-4.896-1.16s-2.733-1.907-3.542-3.401S135.445,134.944,135.445,132.799z M140.508,133.063
		c0,1.852,0.439,3.27,1.318,4.254s1.963,1.477,3.252,1.477s2.37-0.492,3.243-1.477s1.31-2.414,1.31-4.289
		c0-1.828-0.437-3.234-1.31-4.219c-0.873-0.984-1.954-1.477-3.243-1.477s-2.373,0.492-3.252,1.477
		C140.947,129.793,140.508,131.211,140.508,133.063z"/>
	<path d="M175.558,142.397h-4.939v-9.527c0-2.016-0.105-3.319-0.316-3.911s-0.554-1.052-1.028-1.38s-1.046-0.492-1.714-0.492
		c-0.855,0-1.623,0.234-2.303,0.703c-0.68,0.469-1.146,1.09-1.397,1.863s-0.378,2.203-0.378,4.289v8.455h-4.939v-18.668h4.588v2.742
		c1.629-2.109,3.68-3.164,6.152-3.164c1.09,0,2.086,0.196,2.988,0.589s1.585,0.894,2.048,1.503s0.785,1.301,0.967,2.074
		c0.182,0.773,0.272,1.881,0.272,3.322V142.397z"/>
</g>
</svg>
